<svg width="216" height="62" viewBox="0 0 216 62" fill="none" xmlns="http://www.w3.org/2000/svg">
<path d="M14.9901 15.366H13.8523C13.8193 17.4109 13.7863 19.4722 13.7533 21.5501C13.7533 23.6279 13.7533 25.7223 13.7533 27.8331V29.812H15.188C17.3648 29.812 18.9974 29.1194 20.0858 27.7341C21.1742 26.3159 21.7184 24.4854 21.7184 22.2427C21.7184 19.967 21.1247 18.2519 19.9374 17.0976C18.783 15.9432 17.1339 15.366 14.9901 15.366ZM1.63259 15.1681V12.4966H15.0891C18.5192 12.4966 21.2896 12.9089 23.4004 13.7334C25.5113 14.525 27.0449 15.6629 28.0014 17.147C28.9908 18.5982 29.4855 20.3133 29.4855 22.2922C29.4855 24.1721 29.0238 25.9037 28.1003 27.4868C27.2098 29.0369 25.7256 30.2737 23.6478 31.1972C21.57 32.1207 18.7335 32.5824 15.1386 32.5824H13.7533C13.7533 34.0006 13.7533 35.5013 13.7533 37.0844C13.7863 38.6346 13.8193 40.2342 13.8523 41.8832L18.2553 42.3285V45H1.63259V42.3285L5.34302 41.9327C5.40898 39.9208 5.44196 37.8925 5.44196 35.8476C5.44196 33.8027 5.44196 31.7414 5.44196 29.6636V27.8331C5.44196 25.7882 5.44196 23.7434 5.44196 21.6985C5.44196 19.6207 5.40898 17.5758 5.34302 15.5639L1.63259 15.1681ZM43.3749 45.7421C40.8024 45.7421 38.5761 45.2144 36.6961 44.159C34.8162 43.0706 33.365 41.5699 32.3426 39.657C31.3201 37.7111 30.8089 35.4683 30.8089 32.9287C30.8089 30.3892 31.3531 28.1794 32.4415 26.2994C33.5629 24.4195 35.08 22.9518 36.993 21.8964C38.9059 20.841 41.0332 20.3133 43.3749 20.3133C45.7166 20.3133 47.8274 20.8245 49.7074 21.8469C51.6203 22.8693 53.1375 24.337 54.2588 26.25C55.3802 28.1299 55.9409 30.3562 55.9409 32.9287C55.9409 35.5013 55.4297 37.744 54.4073 39.657C53.3848 41.5699 51.9336 43.0706 50.0537 44.159C48.1737 45.2144 45.9475 45.7421 43.3749 45.7421ZM43.3749 43.1695C44.7601 43.1695 45.7991 42.3615 46.4917 40.7454C47.1843 39.1293 47.5306 36.5732 47.5306 33.0772C47.5306 29.5481 47.1843 26.9756 46.4917 25.3595C45.7991 23.7434 44.7601 22.9353 43.3749 22.9353C41.9567 22.9353 40.9013 23.7434 40.2087 25.3595C39.5161 26.9756 39.1698 29.5481 39.1698 33.0772C39.1698 36.5732 39.5161 39.1293 40.2087 40.7454C40.9013 42.3615 41.9567 43.1695 43.3749 43.1695ZM58.4887 45V42.6748L61.2097 42.0811C61.2427 40.8278 61.2592 39.5745 61.2592 38.3212C61.2922 37.0679 61.3087 35.8311 61.3087 34.6108V13.8819L58.2414 13.3871V11.3093L68.6306 9.08304L69.4221 9.57777L69.2242 16.5039V34.6108C69.2242 35.8641 69.2242 37.1174 69.2242 38.3707C69.2572 39.624 69.2902 40.8773 69.3232 42.1306L72.0442 42.6748V45H58.4887ZM74.6782 45V42.6748L77.3497 42.0811C77.3827 40.8938 77.3992 39.6075 77.3992 38.2223C77.3992 36.8371 77.3992 35.6332 77.3992 34.6108V32.2361C77.3992 30.8839 77.3827 29.7625 77.3497 28.872C77.3497 27.9485 77.3167 26.992 77.2508 26.0026L74.1835 25.5573V23.6279L84.5727 20.3133L85.4137 20.8575L85.2653 28.031V34.6108C85.2653 35.6332 85.2653 36.8535 85.2653 38.2718C85.2653 39.657 85.2818 40.9598 85.3148 42.1801L87.7884 42.6748V45H74.6782ZM81.258 16.6523C80.1037 16.6523 79.1142 16.2895 78.2897 15.5639C77.4651 14.8053 77.0529 13.8654 77.0529 12.744C77.0529 11.5896 77.4651 10.6497 78.2897 9.92407C79.1142 9.16549 80.1037 8.78621 81.258 8.78621C82.4124 8.78621 83.4018 9.16549 84.2264 9.92407C85.0509 10.6497 85.4632 11.5896 85.4632 12.744C85.4632 13.8654 85.0509 14.8053 84.2264 15.5639C83.4018 16.2895 82.4124 16.6523 81.258 16.6523ZM99.6324 45.7421C97.4226 45.7421 95.6911 45.2144 94.4378 44.159C93.1845 43.0706 92.5578 41.3061 92.5578 38.8654C92.5578 38.0079 92.5578 37.2163 92.5578 36.4907C92.5908 35.7322 92.6073 34.8746 92.6073 33.9182V24.469H89.3916V21.5501L93.0526 21.0554L95.5262 14.1292H100.572L100.473 21.1048H105.668V24.469H100.473V38.3212C100.473 39.4756 100.704 40.3331 101.166 40.8938C101.661 41.4215 102.271 41.6853 102.997 41.6853C103.854 41.6853 104.745 41.3226 105.668 40.597L106.905 41.7843C106.245 43.0376 105.322 44.0106 104.134 44.7032C102.98 45.3958 101.479 45.7421 99.6324 45.7421ZM143.026 15.1681V12.4966H153.465V15.1681L149.606 15.8113L140.899 45.0989H136.05L129.025 22.6385L122.198 45.0989H117.35L108.494 15.465L105.476 15.1681V12.4966H120.813V15.1681L117.201 15.5639L122.247 35.4518L128.184 15.6134L124.573 15.1681V12.4966H139.414V15.1681L135.061 15.7123L140.849 35.8476L146.538 15.7123L143.026 15.1681ZM153.428 45V42.6748L156.1 42.0811C156.133 40.8938 156.149 39.6075 156.149 38.2223C156.149 36.8371 156.149 35.6332 156.149 34.6108V32.2361C156.149 30.8839 156.133 29.7625 156.1 28.872C156.1 27.9485 156.067 26.992 156.001 26.0026L152.933 25.5573V23.6279L163.323 20.3133L164.164 20.8575L164.015 28.031V34.6108C164.015 35.6332 164.015 36.8535 164.015 38.2718C164.015 39.657 164.032 40.9598 164.065 42.1801L166.538 42.6748V45H153.428ZM160.008 16.6523C158.854 16.6523 157.864 16.2895 157.04 15.5639C156.215 14.8053 155.803 13.8654 155.803 12.744C155.803 11.5896 156.215 10.6497 157.04 9.92407C157.864 9.16549 158.854 8.78621 160.008 8.78621C161.162 8.78621 162.152 9.16549 162.976 9.92407C163.801 10.6497 164.213 11.5896 164.213 12.744C164.213 13.8654 163.801 14.8053 162.976 15.5639C162.152 16.2895 161.162 16.6523 160.008 16.6523ZM168.933 45V42.6748L171.654 42.1306C171.687 40.9103 171.704 39.6075 171.704 38.2223C171.704 36.8371 171.704 35.6332 171.704 34.6108V31.6919C171.704 30.7684 171.687 30.0099 171.654 29.4162C171.654 28.8225 171.638 28.2783 171.605 27.7836C171.605 27.2559 171.588 26.6622 171.555 26.0026L168.537 25.5573V23.6279L178.283 20.3133L179.174 20.8575L179.619 26.6952C180.312 24.5844 181.285 23.0013 182.538 21.9459C183.791 20.8575 185.028 20.3133 186.248 20.3133C187.337 20.3133 188.277 20.6266 189.068 21.2533C189.86 21.8469 190.355 22.7539 190.553 23.9742C190.52 25.2605 190.173 26.2665 189.514 26.992C188.854 27.6847 188.029 28.031 187.04 28.031C185.655 28.031 184.385 27.2559 183.231 25.7058L182.934 25.31C182.208 26.0026 181.532 26.8766 180.905 27.932C180.312 28.9874 179.883 30.0923 179.619 31.2467V34.6108C179.619 35.6332 179.619 36.8041 179.619 38.1233C179.619 39.4426 179.636 40.6794 179.669 41.8338L183.577 42.6748V45H168.933ZM203.427 22.8858C202.504 22.8858 201.646 23.463 200.855 24.6174C200.096 25.7387 199.667 27.8166 199.569 30.8509H203.774C204.961 30.8509 205.753 30.62 206.148 30.1583C206.577 29.6636 206.792 28.8555 206.792 27.7341C206.792 26.0851 206.462 24.8647 205.802 24.0732C205.142 23.2816 204.351 22.8858 203.427 22.8858ZM203.526 45.7421C201.119 45.7421 198.991 45.2474 197.144 44.2579C195.297 43.2355 193.846 41.7843 192.791 39.9043C191.735 37.9914 191.208 35.7157 191.208 33.0772C191.208 30.3067 191.818 27.9815 193.038 26.1015C194.291 24.1886 195.891 22.7539 197.837 21.7974C199.783 20.808 201.811 20.3133 203.922 20.3133C206.099 20.3133 207.946 20.775 209.463 21.6985C211.013 22.622 212.184 23.8753 212.976 25.4584C213.767 27.0085 214.163 28.7895 214.163 30.8014C214.163 31.7579 214.064 32.6319 213.866 33.4235H199.569C199.733 36.029 200.443 37.9584 201.696 39.2117C202.982 40.432 204.483 41.0422 206.198 41.0422C207.55 41.0422 208.704 40.7948 209.661 40.3001C210.617 39.7724 211.458 39.1293 212.184 38.3707L213.916 39.9538C212.893 41.8997 211.508 43.3509 209.76 44.3074C208.012 45.2639 205.934 45.7421 203.526 45.7421Z" fill="#141414"/>
<rect y="60" width="210" height="2" fill="black"/>
</svg>
