<svg width="16" height="16" viewBox="0 0 16 16" fill="none" xmlns="http://www.w3.org/2000/svg">
<path d="M15.0011 6.12535C15.0022 6.60151 14.9088 7.07315 14.7265 7.51299C14.5441 7.95284 14.2763 8.35216 13.9386 8.68785L8.35738 14.3516C8.31086 14.3988 8.2554 14.4364 8.19424 14.462C8.13308 14.4876 8.06744 14.5008 8.00113 14.5008C7.93483 14.5008 7.86918 14.4876 7.80802 14.462C7.74686 14.4364 7.69141 14.3988 7.64488 14.3516L2.06363 8.68785C1.38319 8.00823 1.00059 7.08615 1 6.12444C0.999415 5.16273 1.38089 4.24017 2.06051 3.55973C2.74012 2.87928 3.66221 2.49668 4.62392 2.49609C5.58563 2.49551 6.50819 2.87698 7.18863 3.5566L8.00113 4.31598L8.81926 3.5541C9.32704 3.04884 9.97313 2.70535 10.676 2.567C11.3788 2.42864 12.1069 2.50161 12.7683 2.77671C13.4297 3.05181 13.9947 3.51669 14.3921 4.11268C14.7895 4.70866 15.0015 5.40903 15.0011 6.12535Z" fill="#F3F3F3"/>
</svg>
